Coordinates
version=1
nRows=18
nColumns=22
inDegrees=yes

Units are S.I. units (second, meters, Newtons, ...)
If the header above contains a line with 'inDegrees', this indicates whether rotational values are in degrees (yes) or radians (no).

endheader
time	pelvis_tilt	pelvis_list	pelvis_rotation	pelvis_tx	pelvis_ty	pelvis_tz	hip_flexion_r	hip_adduction_r	hip_rotation_r	knee_angle_r	ankle_angle_r	subtalar_angle_r	hip_flexion_l	hip_adduction_l	hip_rotation_l	knee_angle_l	ankle_angle_l	subtalar_angle_l	lumbar_extension	lumbar_bending	lumbar_rotation
      1.99000000	     -2.56574021	     -3.33176909	    119.77105558	     -0.70126505	      0.98541757	      0.25143150	     -9.32060657	      4.38811304	      6.81352458	    -29.71613770	      8.47487132	     11.08145334	     22.96052276	      3.00656113	      6.11814269	    -20.05489390	      5.20935057	      9.91268471	      0.73002604	     -5.78638414	      5.99701731
      2.00000000	     -3.00246539	     -3.55173520	    118.95407017	     -0.70627271	      0.98638440	      0.24214367	     -8.45418465	      3.41364099	      5.26557361	    -31.89917963	      7.41406538	     12.91977752	     22.43855960	      3.20506532	      5.12133609	    -20.35849506	      5.25754213	      9.95737655	      0.83498950	     -6.38251015	      5.88481985
      2.01000000	     -3.43549696	     -3.77100659	    118.09663209	     -0.71109879	      0.98734137	      0.23312648	     -7.43566499	      2.35328754	      3.67667538	    -34.18255918	      6.39272866	     14.39724582	     21.84675089	      3.42267878	      4.18418963	    -20.49467085	      5.40136627	      9.86807633	      0.91528176	     -6.94708319	      5.77666349
      2.02000000	     -3.86918292	     -3.98272960	    117.21213617	     -0.71572479	      0.98825671	      0.22439452	     -6.28901568	      1.22386101	      2.11811274	    -36.53175910	      5.49495296	     15.32996636	     21.22260420	      3.66795291	      3.28464441	    -20.53774737	      5.60082199	      9.63711593	      0.95141588	     -7.48436200	      5.63336846
      2.03000000	     -4.29602552	     -4.17294374	    116.29711826	     -0.72013184	      0.98915982	      0.21588533	     -5.04308532	      0.06441941	      0.68232390	    -38.89798036	      4.74018659	     15.69581488	     20.55204761	      3.93147988	      2.47964733	    -20.48532600	      5.86782953	      9.36524471	      0.94161180	     -7.98683674	      5.47892142
      2.04000000	     -4.67874512	     -4.32869766	    115.38218486	     -0.72431714	      0.99001596	      0.20761276	     -3.71351140	     -1.05808518	     -0.61034252	    -41.23374427	      4.26693592	     15.69879269	     19.89640938	      4.17040178	      1.69195434	    -20.43097704	      6.13465128	      8.78932410	      0.88220712	     -8.41277878	      5.25335769
      2.05000000	     -5.03255682	     -4.43900788	    114.45100451	     -0.72825226	      0.99089041	      0.19949512	     -2.33254747	     -2.12522265	     -1.72093342	    -43.50126541	      4.00896372	     15.16488941	     19.21024026	      4.38723421	      0.97269614	    -20.33548896	      6.42053662	      8.23255899	      0.76571833	     -8.78145943	      5.01687110
      2.06000000	     -5.33232013	     -4.49554800	    113.51690419	     -0.73191917	      0.99178781	      0.19151797	     -0.91486176	     -3.07990255	     -2.64131728	    -45.65981865	      3.96900946	     14.23873318	     18.51229970	      4.54956513	      0.29683270	    -20.22971727	      6.72569091	      7.65346630	      0.59577455	     -9.07126286	      4.75351811
      2.07000000	     -5.56873269	     -4.49470056	    112.58570555	     -0.73531460	      0.99271853	      0.18366488	      0.52618571	     -3.88934862	     -3.36955802	    -47.68916178	      4.14177477	     13.06794481	     17.80316880	      4.64264358	     -0.34056963	    -20.12275279	      7.05064735	      7.10847725	      0.37453780	     -9.27154553	      4.47271537
      2.08000000	     -5.74171885	     -4.45152859	    111.64728017	     -0.73839023	      0.99367854	      0.17594120	      1.99814400	     -4.54043957	     -3.89983159	    -49.57237077	      4.47511361	     11.81007098	     17.10112874	      4.65889130	     -0.99159256	    -20.01971573	      7.34376413	      6.64073659	      0.11712726	     -9.39599060	      4.17605405
      2.09000000	     -5.83198602	     -4.36198861	    110.71047909	     -0.74116580	      0.99466398	      0.16833348	      3.48419812	     -5.00111011	     -4.26429342	    -51.28423386	      4.93156301	     10.48699964	     16.39848345	      4.58202740	     -1.61674718	    -19.91441399	      7.66882497	      6.22849777	     -0.16775861	     -9.42464820	      3.88978046
      2.10000000	     -5.85026696	     -4.24237886	    109.76747958	     -0.74363627	      0.99566434	      0.16085508	      4.99034323	     -5.28517861	     -4.48147460	    -52.82149075	      5.45017823	      9.23922112	     15.70882532	      4.42063770	     -2.26302760	    -19.81430820	      7.97802395	      5.90463799	     -0.46750617	     -9.37647790	      3.62457643
      2.11000000	     -5.80306092	     -4.10976139	    108.81579045	     -0.74582344	      0.99666275	      0.15346906	      6.51117144	     -5.40270578	     -4.57543971	    -54.16524274	      6.00820111	      8.12551174	     15.02424112	      4.18550767	     -2.94631134	    -19.68665289	      8.28740897	      5.66422036	     -0.75904325	     -9.26675372	      3.37168889
      2.12000000	     -5.70520447	     -3.97115589	    107.85892786	     -0.74776288	      0.99765748	      0.14619294	      8.03908829	     -5.38336890	     -4.59217499	    -55.30951857	      6.56879796	      7.21275202	     14.34544799	      3.89476704	     -3.68260560	    -19.53551864	      8.58056467	      5.50259404	     -1.04278807	     -9.11116169	      3.14297709
      2.13000000	     -5.57956105	     -3.82296034	    106.87954215	     -0.74945260	      0.99866006	      0.13897363	      9.55265846	     -5.24752756	     -4.52432664	    -56.25164184	      7.12154800	      6.62337773	     13.64437799	      3.56725892	     -4.50261294	    -19.34158126	      8.85539740	      5.40865432	     -1.32069901	     -8.93512468	      2.94877874
      2.14000000	     -5.41835967	     -3.70997808	    105.95570749	     -0.75107581	      0.99959019	      0.13190201	     11.07631520	     -5.04861203	     -4.52432937	    -56.98030211	      7.65562717	      6.03229045	     12.98827248	      3.23425084	     -5.32894281	    -19.13548525	      9.10932059	      5.34074579	     -1.56357630	     -8.73232698	      2.70137941
      2.15000000	     -5.25270818	     -3.57877001	    105.03316397	     -0.75256506	      1.00054837	      0.12486479	     12.53985773	     -4.79034618	     -4.50989927	    -57.48882015	      8.18325516	      5.77620323	     12.27295712	      2.90126069	     -6.19758873	    -18.85672491	      9.34949239	      5.29874093	     -1.82181577	     -8.52323142	      2.46552786
      2.16000000	     -5.07593757	     -3.48012141	    104.15814566	     -0.75401492	      1.00143731	      0.11790238	     13.98911978	     -4.51068936	     -4.56274416	    -57.78601964	      8.67851765	      5.60633881	     11.57574993	      2.58667668	     -7.07320825	    -18.54352449	      9.55936557	      5.26963049	     -2.04324059	     -8.31175001	      2.18589082
